<?xml version="1.0" encoding="utf-8"?>
<!-- Generator: Adobe Illustrator 25.4.1, SVG Export Plug-In . SVG Version: 6.00 Build 0)  -->
<svg version="1.1" xmlns="http://www.w3.org/2000/svg" xmlns:xlink="http://www.w3.org/1999/xlink" x="0px" y="0px"
	 viewBox="0 0 2000 2000" style="enable-background:new 0 0 2000 2000;" xml:space="preserve">
<style type="text/css">
	.st0{fill:#FFFFFF;}
	.st1{fill:#E64412;}
	.st2{fill:#E64512;}
	.st3{fill:#E64513;}
</style>
<g id="Camada_1">
	<g>
		<g>
			<path class="st0" d="M379.83,1281.12V201.31h619.82c1.03,2.37-0.82,3.94-1.77,5.62c-11.45,20.23-23.1,40.34-34.66,60.51
				c-18.73,32.67-37.47,65.34-56.24,97.99c-11.71,20.36-23.27,40.82-34.95,60.76c86.71-42.63,172.84-41.38,258.06,3.65
				c-27.69-48.33-55.73-97.07-83.68-145.86c-14.53-25.35-29.09-50.68-43.62-76.03c-1.15-2-3.32-3.82-2.35-6.63h619.82v1079.81
				c-2.01,0.1-2.5-1.62-3.22-2.87c-20.51-35.86-41.09-71.68-61.67-107.49c-18.38-31.99-36.66-64.03-55.13-95.97
				c-4.16-7.2-8.36-14.37-12.28-21.59c-0.43,29.76-5.87,58.74-16.05,86.83c-9.15,25.22-21.86,48.53-38.02,69.93
				c-16.64,22.04-36.24,41.04-58.79,57.01c-5.52,3.91-11.27,7.45-17.01,11c-2.65,1.64-5.32,3.19-8.38,3.93
				c-41.58,0-83.16,0-124.74,0c0.25-2.14,2.03-1.65,3.27-1.73c32.12-1.89,62.44-10.53,90.99-25.14c18.57-9.5,35.41-21.6,50.87-35.72
				c21.96-20.07,39.34-43.51,52.54-70.03c11.84-23.79,19.57-48.95,22.74-75.39c4.19-34.94,1.17-69.22-9.98-102.66
				c-6.27-18.81-15.21-36.39-25.2-53.49c-19.2-32.86-37.97-65.98-56.92-99c-15.33-26.7-30.6-53.43-45.97-80.11
				c-18.47-32.08-36.85-64.23-55.33-96.31c-15.7-27.24-31.33-54.52-46.93-81.81c-10.7-18.71-23.44-35.95-38.76-51.08
				c-28.85-28.49-62.84-48.28-101.99-59.24c-25.54-7.15-51.56-9.81-77.9-8.39c-29.3,1.58-57.48,8.41-84.29,20.62
				c-22.77,10.37-43.27,24.01-61.76,40.92c-19.5,17.84-34.88,38.73-47.89,61.53c-17.58,30.8-35.3,61.52-52.94,92.29
				c-20.81,36.29-41.61,72.58-62.46,108.84c-19.62,34.12-39.25,68.24-58.78,102.42c-13.6,23.79-28.07,47.12-40.53,71.54
				c-12.87,25.21-20.96,52.07-23.68,80.3c-4.06,42.1,2.3,82.57,19.72,121.26c9.74,21.62,22.43,41.32,37.91,59.18
				c17.77,20.49,38.64,37.26,62.3,50.58c26.62,14.99,55.2,23.96,85.42,27.82c3.97,0.51,7.96,1.17,12.02,1.07
				c1.35-0.03,3.24-0.54,3.66,1.71c-43.14,0-86.28,0-129.42,0c-5-1.28-9.09-4.34-13.35-7c-18.71-11.68-35.76-25.47-50.88-41.5
				c-25.16-26.68-44.24-57.23-57.18-91.59c-8.48-22.5-13.48-45.79-15.86-69.68c-0.37-3.73,0.06-7.53-0.77-11.02
				c-8.37,14.69-16.97,29.57-25.5,44.47c-18.84,32.9-37.74,65.78-56.61,98.67c-14.15,24.67-28.31,49.33-42.49,73.98
				C382.32,1279.5,381.84,1281.23,379.83,1281.12z"/>
			<path class="st1" d="M775.11,1281.9c-6.15-0.74-12.31-1.38-18.44-2.22c-56.31-7.74-103.81-32.57-142.09-74.48
				c-34.34-37.59-54.8-81.87-60.97-132.48c-6.34-51.99,4.14-100.68,30.12-146.01c70.1-122.29,140.08-244.65,210.58-366.72
				c33.93-58.75,91.07-100.88,157.52-114.56c99.06-20.4,200.94,22.02,253.64,113.82c70.38,122.59,140.79,245.16,211.1,367.79
				c23.53,41.04,34.31,85.26,31.23,132.52c-6.7,102.91-80.35,194.07-185.24,216.74c-11.75,2.54-23.86,3.38-35.8,5.04
				c-0.61,0.08-1.19,0.38-1.78,0.57H775.11z"/>
			<path class="st2" d="M1349.71,1281.9c17.57-10.14,34.28-21.5,49.25-35.26c46.43-42.7,75.03-95.09,84.86-157.47
				c1.97-12.53,2.64-25.27,3.91-37.98c0.45,0.73,1.13,1.81,1.76,2.91c42.8,74.54,85.59,149.08,128.39,223.61
				c0.69,1.19,2.37,4.14,2.37,4.14s-2.34,0.01-3.51,0.01c-58.6,0.04-117.21,0.03-175.81,0.03
				C1410.52,1281.9,1380.11,1281.9,1349.71,1281.9z"/>
			<path class="st3" d="M1000.04,201.32c0.62,1.08,1.36,2.32,1.98,3.41c42.91,74.8,85.83,149.6,128.75,224.39
				c0.58,1.01,1.16,2.02,1.86,3.24c-87.01-47.02-174.43-48.18-262.74-3.98c0.52-1,1.1-2.17,1.74-3.31
				c42.34-73.78,84.69-147.56,127.02-221.35C999.08,202.99,1000.04,201.32,1000.04,201.32S999.67,201.33,1000.04,201.32z"/>
			<path class="st2" d="M379.75,1281.85c0,0,1.76-2.95,2.45-4.14c41.27-71.85,82.53-143.71,123.79-215.57
				c0.64-1.11,1.28-2.21,2.43-4.18c0.51,6.19,0.78,11.51,1.41,16.78c10.9,90.93,55.73,159.72,134.66,206.23
				c0.43,0.25,0.8,0.61,1.2,0.92c-87.45,0-174.91,0-262.36-0.03C382.16,1281.87,379.86,1281.84,379.75,1281.85z"/>
			<path class="st0" d="M836.25,918.63c0.09-89.38,73.37-162.52,162.2-161.88c90.49,0.65,161.94,72.8,161.8,163.4
				c-0.13,88.41-73.13,160.73-162.15,160.63C908.63,1080.67,836.16,1008.07,836.25,918.63z"/>
		</g>
	</g>
</g>
<g id="Camada_2">
	<g>
		<path d="M482.29,1626.24c-69.31-1.26-102.07-53.87-102.07-118.46c0-72.77,40.96-124.44,102.07-126.65v18.27
			c-15.12,3.15-20.16,16.07-20.16,29.3v149.33c0,13.23,5.04,26.15,20.16,29.93V1626.24z M496.47,1381.13
			c11.66,0.31,35.91,12.6,44.11,12.6c4.73,0,6.62-1.89,8.51-5.99c1.89-4.1,4.1-6.62,8.51-6.62c10.08,0,10.08,9.77,10.08,11.34v73.09
			c0,1.57,0,11.34-10.08,11.34c-6.62,0-10.4-5.36-11.66-11.34c-5.36-25.52-20.16-58.28-49.46-66.16V1381.13z M558.53,1553.15
			c5.99,0,9.45,5.04,9.45,10.71c-0.63,25.83-38.75,63.64-71.52,62.38v-18.27c24.26-5.36,44.74-21.42,51.67-44.74
			C550.03,1557.87,551.92,1553.15,558.53,1553.15z"/>
		<path d="M657.77,1465.57l-29.61,107.74c-5.04,19.22-0.63,24.57,10.08,29.3c5.04,2.21,9.45,4.1,9.45,10.4
			c0,8.82-10.08,8.51-16.38,8.51h-36.23c-6.3,0-17.64-0.32-17.64-9.45c0-7.56,5.36-7.25,12.29-10.71
			c6.62-3.47,15.12-10.71,21.11-33.08l37.81-138.3h0.95L657.77,1465.57z M691.48,1560.39h-46l4.41-18.27h38.44l-31.82-139.25
			l4.1-17.01h69.63l47.26,199.11c1.89,8.82,2.21,14.81,11.03,18.59c4.41,1.89,7.88,4.1,7.88,9.77c0,8.51-11.34,8.19-17.33,8.19
			h-78.45c-6.3,0-15.44-0.63-15.44-8.82c0-5.04,1.89-6.62,5.99-8.82c8.19-4.73,9.45-6.93,6.62-19.22L691.48,1560.39z"/>
		<path d="M832.3,1421.14c0-11.66,0.31-13.55-10.71-17.01c-4.1-1.26-6.93-4.1-6.93-8.51c0-9.14,10.4-9.77,11.66-9.77h83.17v200.37
			c0,11.66-0.32,13.55,10.71,17.01c4.1,1.26,6.93,4.1,6.93,8.51c0,9.14-10.4,9.77-11.66,9.77h-89.16c-1.26,0-11.66-0.63-11.66-9.77
			c0-4.41,2.84-7.25,6.93-8.51c11.03-3.47,10.71-5.36,10.71-17.01V1421.14z M923.67,1385.86h1.58c20.48,0,41.9-0.63,60.8,8.51
			c21.11,10.4,31.82,27.72,32.13,51.67c0.63,36.23-23.31,51.98-55.45,59.54v0.63c28.04,4.1,54.82,12.29,55.45,45.68v27.72
			c0,2.84-0.95,9.14,3.15,9.14c5.04,0,5.99-9.14,13.55-9.14c4.1,0,9.14,4.73,9.14,9.14c0,9.14-10.4,20.79-17.33,26.15
			c-10.71,8.82-22.05,11.34-35.6,11.34c-13.55,0-25.83-3.47-35.6-13.23c-11.03-11.34-12.6-25.2-12.6-40.01v-21.42
			c0-14.49-0.32-32.13-19.22-34.02v-18.59c17.01-1.57,19.22-11.97,19.22-27.41v-38.12c0-15.75-3.47-23.31-19.22-28.98V1385.86z"/>
		<path d="M1154.91,1586.23c0,11.66-0.31,13.55,10.71,17.01c4.1,1.26,6.93,4.1,6.93,8.51c0,9.14-10.4,9.77-11.66,9.77h-89.16
			c-1.26,0-11.66-0.63-11.66-9.77c0-4.41,2.84-7.25,6.93-8.51c11.03-3.47,10.71-5.36,10.71-17.01v-165.08
			c0-11.66,0.32-13.55-10.71-17.01c-4.1-1.26-6.93-4.1-6.93-8.51c0-9.14,10.4-9.77,11.66-9.77h89.16c1.26,0,11.66,0.63,11.66,9.77
			c0,4.41-2.84,7.25-6.93,8.51c-11.03,3.47-10.71,5.36-10.71,17.01V1586.23z"/>
		<path d="M1264.54,1465.57l-29.61,107.74c-5.04,19.22-0.63,24.57,10.08,29.3c5.04,2.21,9.45,4.1,9.45,10.4
			c0,8.82-10.08,8.51-16.38,8.51h-36.23c-6.3,0-17.64-0.32-17.64-9.45c0-7.56,5.36-7.25,12.29-10.71
			c6.62-3.47,15.12-10.71,21.11-33.08l37.8-138.3h0.95L1264.54,1465.57z M1298.25,1560.39h-46l4.41-18.27h38.44l-31.82-139.25
			l4.1-17.01H1337l47.26,199.11c1.89,8.82,2.21,14.81,11.03,18.59c4.41,1.89,7.88,4.1,7.88,9.77c0,8.51-11.34,8.19-17.33,8.19
			h-78.45c-6.3,0-15.44-0.63-15.44-8.82c0-5.04,1.89-6.62,5.99-8.82c8.19-4.73,9.45-6.93,6.62-19.22L1298.25,1560.39z"/>
		<path d="M1433.41,1421.14c0-11.66,0.32-13.55-10.71-17.01c-4.1-1.26-6.93-4.1-6.93-8.51c0-9.14,10.4-9.77,11.66-9.77h83.17v200.37
			c0,11.66-0.32,13.55,10.71,17.01c4.1,1.26,6.93,4.1,6.93,8.51c0,9.14-10.4,9.77-11.66,9.77h-89.16c-1.26,0-11.66-0.63-11.66-9.77
			c0-4.41,2.84-7.25,6.93-8.51c11.03-3.47,10.71-5.36,10.71-17.01V1421.14z M1524.77,1385.86c29.93,0,47.57,3.15,62.38,11.66
			c23.31,13.86,32.45,34.65,32.45,61.12c0,26.46-9.14,47.26-32.45,61.12c-14.81,8.51-32.45,11.66-62.38,11.66v-18.27
			c18.59-3.47,19.53-16.38,19.53-31.82v-47.57c0-14.18-2.84-27.09-19.53-29.61V1385.86z"/>
	</g>
</g>
</svg>
